<?xml version="1.0" encoding="UTF-8" standalone="no"?>
<!DOCTYPE svg PUBLIC "-//W3C//DTD SVG 1.1//EN"
 "http://www.w3.org/Graphics/SVG/1.1/DTD/svg11.dtd">
<!-- Generated by graphviz version 2.44.0 (20200408.0750)
 -->
<!-- Pages: 1 -->
<svg width="1068pt" height="188pt"
 viewBox="0.00 0.00 1068.13 188.00" xmlns="http://www.w3.org/2000/svg" xmlns:xlink="http://www.w3.org/1999/xlink">
<g id="graph0" class="graph" transform="scale(1 1) rotate(0) translate(4 184)">
<polygon fill="white" stroke="transparent" points="-4,4 -4,-184 1064.13,-184 1064.13,4 -4,4"/>
<!-- /Users/sung/Desktop/data&#45;fusion&#45;example/tf_modules -->
<g id="node1" class="node">
<title>/Users/sung/Desktop/data&#45;fusion&#45;example/tf_modules</title>
<ellipse fill="none" stroke="black" cx="201.48" cy="-162" rx="201.46" ry="18"/>
<text text-anchor="middle" x="201.48" y="-158.3" font-family="Times,serif" font-size="14.00">/Users/sung/Desktop/data&#45;fusion&#45;example/tf_modules</text>
</g>
<!-- dev/cloud_composer -->
<g id="node2" class="node">
<title>dev/cloud_composer</title>
<ellipse fill="none" stroke="black" cx="505.48" cy="-162" rx="84.49" ry="18"/>
<text text-anchor="middle" x="505.48" y="-158.3" font-family="Times,serif" font-size="14.00">dev/cloud_composer</text>
</g>
<!-- dev/service_accounts -->
<g id="node3" class="node">
<title>dev/service_accounts</title>
<ellipse fill="none" stroke="black" cx="448.48" cy="-90" rx="85.59" ry="18"/>
<text text-anchor="middle" x="448.48" y="-86.3" font-family="Times,serif" font-size="14.00">dev/service_accounts</text>
</g>
<!-- dev/cloud_composer&#45;&gt;dev/service_accounts -->
<g id="edge1" class="edge">
<title>dev/cloud_composer&#45;&gt;dev/service_accounts</title>
<path fill="none" stroke="black" d="M491.68,-144.05C484.75,-135.54 476.22,-125.07 468.58,-115.68"/>
<polygon fill="black" stroke="black" points="471.18,-113.33 462.15,-107.79 465.75,-117.75 471.18,-113.33"/>
</g>
<!-- dev/enable_apis -->
<g id="node4" class="node">
<title>dev/enable_apis</title>
<ellipse fill="none" stroke="black" cx="674.48" cy="-18" rx="67.69" ry="18"/>
<text text-anchor="middle" x="674.48" y="-14.3" font-family="Times,serif" font-size="14.00">dev/enable_apis</text>
</g>
<!-- dev/cloud_composer&#45;&gt;dev/enable_apis -->
<g id="edge2" class="edge">
<title>dev/cloud_composer&#45;&gt;dev/enable_apis</title>
<path fill="none" stroke="black" d="M517.17,-144.05C530.96,-124.91 555.33,-93.63 581.48,-72 597.07,-59.11 616.21,-47.6 633.07,-38.63"/>
<polygon fill="black" stroke="black" points="634.9,-41.62 642.17,-33.91 631.68,-35.41 634.9,-41.62"/>
</g>
<!-- dev/service_accounts&#45;&gt;dev/enable_apis -->
<g id="edge6" class="edge">
<title>dev/service_accounts&#45;&gt;dev/enable_apis</title>
<path fill="none" stroke="black" d="M494.49,-74.75C531.45,-63.3 583.38,-47.22 621.97,-35.26"/>
<polygon fill="black" stroke="black" points="623.46,-38.47 631.98,-32.17 621.39,-31.78 623.46,-38.47"/>
</g>
<!-- dev/compute_engine -->
<g id="node5" class="node">
<title>dev/compute_engine</title>
<ellipse fill="none" stroke="black" cx="674.48" cy="-90" rx="84.49" ry="18"/>
<text text-anchor="middle" x="674.48" y="-86.3" font-family="Times,serif" font-size="14.00">dev/compute_engine</text>
</g>
<!-- dev/compute_engine&#45;&gt;dev/enable_apis -->
<g id="edge3" class="edge">
<title>dev/compute_engine&#45;&gt;dev/enable_apis</title>
<path fill="none" stroke="black" d="M674.48,-71.7C674.48,-63.98 674.48,-54.71 674.48,-46.11"/>
<polygon fill="black" stroke="black" points="677.98,-46.1 674.48,-36.1 670.98,-46.1 677.98,-46.1"/>
</g>
<!-- dev/data_fusion -->
<g id="node6" class="node">
<title>dev/data_fusion</title>
<ellipse fill="none" stroke="black" cx="843.48" cy="-90" rx="66.89" ry="18"/>
<text text-anchor="middle" x="843.48" y="-86.3" font-family="Times,serif" font-size="14.00">dev/data_fusion</text>
</g>
<!-- dev/data_fusion&#45;&gt;dev/enable_apis -->
<g id="edge4" class="edge">
<title>dev/data_fusion&#45;&gt;dev/enable_apis</title>
<path fill="none" stroke="black" d="M808.47,-74.5C782.52,-63.75 746.96,-49.02 719,-37.44"/>
<polygon fill="black" stroke="black" points="720.03,-34.08 709.45,-33.49 717.35,-40.55 720.03,-34.08"/>
</g>
<!-- dev/networking -->
<g id="node7" class="node">
<title>dev/networking</title>
<ellipse fill="none" stroke="black" cx="994.48" cy="-90" rx="65.79" ry="18"/>
<text text-anchor="middle" x="994.48" y="-86.3" font-family="Times,serif" font-size="14.00">dev/networking</text>
</g>
<!-- dev/networking&#45;&gt;dev/enable_apis -->
<g id="edge5" class="edge">
<title>dev/networking&#45;&gt;dev/enable_apis</title>
<path fill="none" stroke="black" d="M945.68,-77.87C936.96,-75.9 927.96,-73.88 919.48,-72 856.88,-58.13 785.17,-42.67 735.59,-32.04"/>
<polygon fill="black" stroke="black" points="736.17,-28.59 725.66,-29.92 734.71,-35.43 736.17,-28.59"/>
</g>
</g>
</svg>
